<?xml version="1.0" encoding="UTF-8" standalone="no"?>
<!-- Created with Inkscape (http://www.inkscape.org/) -->

<svg
   width="33.898338mm"
   height="22.815876mm"
   viewBox="0 -2 33.898338 22.815876"
   version="1.1"
   id="svg5"
   inkscape:version="1.2.1 (9c6d41e410, 2022-07-14)"
   sodipodi:docname="galera-edutech-logo.svg"
   inkscape:export-filename="galera-edutech-logo.webp"
   inkscape:export-xdpi="96"
   inkscape:export-ydpi="96"
   xmlns:inkscape="http://www.inkscape.org/namespaces/inkscape"
   xmlns:sodipodi="http://sodipodi.sourceforge.net/DTD/sodipodi-0.dtd"
   xmlns="http://www.w3.org/2000/svg"
   xmlns:svg="http://www.w3.org/2000/svg">
  <sodipodi:namedview
     id="namedview7"
     pagecolor="#ffffff"
     bordercolor="#666666"
     borderopacity="1.0"
     inkscape:showpageshadow="2"
     inkscape:pageopacity="0.0"
     inkscape:pagecheckerboard="0"
     inkscape:deskcolor="#d1d1d1"
     inkscape:document-units="mm"
     showgrid="false"
     inkscape:zoom="4.0516981"
     inkscape:cx="25.051225"
     inkscape:cy="18.634162"
     inkscape:window-width="1920"
     inkscape:window-height="991"
     inkscape:window-x="-9"
     inkscape:window-y="-9"
     inkscape:window-maximized="1"
     inkscape:current-layer="layer1"
     showguides="false" />
  <defs
     id="defs2" />
  <g
     inkscape:label="Camada 1"
     inkscape:groupmode="layer"
     id="layer1"
     transform="translate(-41.855191,-90.480247)">
    <g
       aria-label="GALERA"
       id="text113"
       style="font-size:10.5833px;line-height:1.25;fill:#054d96;stroke-width:0.264583">
      <path
         d="m 44.661253,97.296136 q -0.888997,0 -1.407579,-0.370416 -0.507998,-0.370415 -0.730248,-1.037163 -0.211666,-0.677331 -0.211666,-1.555745 v -2.878658 q 0,-0.910164 0.232833,-1.576911 0.232832,-0.666748 0.793747,-1.02658 0.571498,-0.370416 1.545162,-0.370416 0.952497,0 1.492245,0.317499 0.550332,0.317499 0.783164,0.878414 0.232833,0.560915 0.232833,1.312329 v 0.550332 h -1.852077 v -0.698498 q 0,-0.275166 -0.04233,-0.507999 -0.03175,-0.232832 -0.169332,-0.370415 -0.127,-0.148166 -0.423332,-0.148166 -0.306916,0 -0.444499,0.169333 -0.137583,0.158749 -0.179916,0.402165 -0.03175,0.243416 -0.03175,0.507998 v 3.968738 q 0,0.285749 0.05292,0.539748 0.0635,0.243416 0.211666,0.402165 0.158749,0.148167 0.444498,0.148167 0.296333,0 0.455082,-0.15875 0.15875,-0.158749 0.222249,-0.412749 0.0635,-0.253999 0.0635,-0.539748 V 93.835397 H 44.925835 V 92.72415 h 2.476492 v 4.444986 h -1.248829 l -0.105833,-0.709081 q -0.169333,0.359832 -0.497415,0.603248 -0.328082,0.232833 -0.888997,0.232833 z"
         style="font-weight:bold;font-family:Oswald;-inkscape-font-specification:'Oswald Bold'"
         id="path6094" />
      <path
         d="m 48.174916,97.169136 1.619245,-8.572473 h 2.158993 l 1.598078,8.572473 h -1.746244 l -0.285749,-1.809744 h -1.259413 l -0.296332,1.809744 z m 2.254243,-2.942157 h 0.910164 l -0.455082,-3.344323 z"
         style="font-weight:bold;font-family:Oswald;-inkscape-font-specification:'Oswald Bold'"
         id="path6096" />
      <path
         d="m 54.419069,97.169136 v -8.572473 h 1.894411 v 7.291894 h 1.968493 v 1.280579 z"
         style="font-weight:bold;font-family:Oswald;-inkscape-font-specification:'Oswald Bold'"
         id="path6098" />
      <path
         d="M 59.107479,97.169136 V 88.596663 H 62.9598 v 1.291163 h -1.957911 v 2.127243 h 1.492246 v 1.312329 h -1.492246 v 2.561159 h 1.979077 v 1.280579 z"
         style="font-weight:bold;font-family:Oswald;-inkscape-font-specification:'Oswald Bold'"
         id="path6100" />
      <path
         d="m 63.838218,97.169136 v -8.572473 h 2.360076 q 0.867831,0 1.502829,0.1905 0.634998,0.190499 0.984247,0.687914 0.359832,0.486832 0.359832,1.386412 0,0.529165 -0.08467,0.941914 -0.08467,0.412749 -0.317499,0.719665 -0.222249,0.296332 -0.645581,0.497415 l 1.174746,4.148653 h -1.95791 l -0.941914,-3.841738 h -0.539748 v 3.841738 z m 1.894411,-4.931818 h 0.529165 q 0.402165,0 0.624415,-0.137582 0.222249,-0.148167 0.306915,-0.412749 0.09525,-0.275166 0.09525,-0.656165 0,-0.550331 -0.201083,-0.857247 -0.201082,-0.306916 -0.740831,-0.306916 h -0.613831 z"
         style="font-weight:bold;font-family:Oswald;-inkscape-font-specification:'Oswald Bold'"
         id="path6102" />
      <path
         d="M 69.775455,97.169136 71.3947,88.596663 h 2.158993 l 1.598078,8.572473 h -1.746244 l -0.28575,-1.809744 h -1.259412 l -0.296333,1.809744 z m 2.254243,-2.942157 h 0.910163 l -0.455082,-3.344323 z"
         style="font-weight:bold;font-family:Oswald;-inkscape-font-specification:'Oswald Bold'"
         id="path6104" />
    </g>
    <g
       aria-label="EDUTECH"
       transform="scale(0.93350279,1.0712341)"
       id="text270"
       style="font-size:11.3372px;line-height:1.25;stroke-width:0.28343">
      <path
         d="m 44.836707,103.78187 v -9.183134 h 3.559881 v 0.952325 H 46.11781 v 3.038369 h 1.847964 v 0.906976 H 46.11781 v 3.367144 h 2.301452 v 0.91832 z"
         style="font-family:Oswald;-inkscape-font-specification:Oswald;fill:#2ba542"
         id="path6107" />
      <path
         d="m 49.450943,103.78187 v -9.183134 h 1.995347 q 1.020348,0 1.609882,0.317441 0.600872,0.306105 0.85029,0.929651 0.260756,0.623546 0.260756,1.553196 v 3.378486 q 0,0.975 -0.260756,1.64389 -0.249418,0.6689 -0.827615,1.02035 -0.56686,0.34012 -1.530522,0.34012 z m 1.281103,-0.91832 h 0.725581 q 0.702907,0 0.997674,-0.27209 0.294767,-0.27209 0.351453,-0.7936 0.06802,-0.52151 0.06802,-1.25843 v -2.981685 q 0,-0.714244 -0.0907,-1.156394 -0.0907,-0.442151 -0.396802,-0.646221 -0.306105,-0.204069 -0.963662,-0.204069 h -0.69157 z"
         style="font-family:Oswald;-inkscape-font-specification:Oswald;fill:#2ba542"
         id="path6109" />
      <path
         d="m 57.795127,103.8839 q -0.997674,0 -1.530522,-0.3968 -0.532848,-0.3968 -0.725581,-1.11104 -0.192732,-0.72559 -0.192732,-1.68925 v -6.088074 h 1.224417 v 6.144764 q 0,0.58953 0.07936,1.07703 0.07936,0.4875 0.340116,0.77093 0.272093,0.28343 0.804941,0.28343 0.544186,0 0.804941,-0.28343 0.260756,-0.28343 0.340116,-0.77093 0.07936,-0.4875 0.07936,-1.07703 v -6.144764 h 1.21308 v 6.088074 q 0,0.96366 -0.192732,1.68925 -0.192733,0.71424 -0.725581,1.11104 -0.521511,0.3968 -1.519185,0.3968 z"
         style="font-family:Oswald;-inkscape-font-specification:Oswald;fill:#2ba542"
         id="path6111" />
      <path
         d="M 62.806162,103.78187 V 95.267631 H 61.07157 v -0.668895 h 4.285462 v 0.668895 h -1.689243 v 8.514239 z"
         style="font-family:Oswald;-inkscape-font-specification:'Oswald weight=250'"
         id="path6113" />
      <path
         d="m 66.3547,103.78187 v -9.183134 h 3.3218 v 0.668895 h -2.448835 v 3.446509 h 1.995347 v 0.634883 h -1.995347 v 3.786627 h 2.471509 v 0.64622 z"
         style="font-family:Oswald;-inkscape-font-specification:'Oswald weight=250'"
         id="path6115" />
      <path
         d="m 73.009644,103.89524 q -0.929651,0 -1.439825,-0.38546 -0.498836,-0.38547 -0.691569,-1.03169 -0.192732,-0.65756 -0.192732,-1.45116 v -3.65058 q 0,-0.85029 0.192732,-1.496511 0.20407,-0.64622 0.714244,-1.00901 0.510174,-0.362791 1.41715,-0.362791 0.827615,0 1.292441,0.317442 0.476162,0.317441 0.680232,0.906976 0.204069,0.578197 0.204069,1.383138 v 0.555523 h -0.816278 v -0.532848 q 0,-0.600872 -0.102035,-1.031686 -0.0907,-0.430813 -0.385465,-0.668894 -0.294767,-0.238082 -0.861627,-0.238082 -0.623546,0 -0.940988,0.260756 -0.306104,0.249418 -0.419476,0.714244 -0.102035,0.464825 -0.102035,1.077034 v 3.911329 q 0,0.68024 0.124709,1.13372 0.136047,0.45349 0.453488,0.68024 0.317442,0.22674 0.884302,0.22674 0.578197,0 0.861627,-0.24942 0.294767,-0.24942 0.385465,-0.69157 0.102035,-0.45348 0.102035,-1.05436 v -0.60087 h 0.816278 v 0.54419 q 0,0.80494 -0.192732,1.42848 -0.181395,0.61221 -0.657558,0.96367 -0.464825,0.35145 -1.326452,0.35145 z"
         style="font-family:Oswald;-inkscape-font-specification:'Oswald weight=250'"
         id="path6117" />
      <path
         d="m 76.524183,103.78187 v -9.183134 h 0.872965 v 4.070055 h 2.890986 v -4.070055 h 0.861627 v 9.183134 h -0.861627 v -4.466859 h -2.890986 v 4.466859 z"
         style="font-family:Oswald;-inkscape-font-specification:'Oswald weight=250'"
         id="path6119" />
    </g>
  </g>
</svg>
